<?xml version="1.0" encoding="iso-8859-1"?>
<!-- Generator: Adobe Illustrator 19.2.0, SVG Export Plug-In . SVG Version: 6.00 Build 0)  -->
<svg xmlns="http://www.w3.org/2000/svg" xmlns:xlink="http://www.w3.org/1999/xlink" version="1.1" id="Layer_1" x="0px" y="0px" viewBox="0 0 40 40" style="enable-background:new 0 0 40 40;" xml:space="preserve">
<g>
	<path style="fill:#DFF0FE;" d="M4,37.5c-1.378,0-2.5-1.121-2.5-2.5V4c0-1.379,1.122-2.5,2.5-2.5h31c1.378,0,2.5,1.121,2.5,2.5v31   c0,1.379-1.122,2.5-2.5,2.5H4z"/>
	<path style="fill:#4788C7;" d="M35,2c1.103,0,2,0.897,2,2v31c0,1.103-0.897,2-2,2H4c-1.103,0-2-0.897-2-2V4c0-1.103,0.897-2,2-2H35    M35,1H4C2.343,1,1,2.343,1,4v31c0,1.657,1.343,3,3,3h31c1.657,0,3-1.343,3-3V4C38,2.343,36.657,1,35,1L35,1z"/>
</g>
<g>
	<rect x="19" y="2" style="fill:#B6DCFE;" width="1" height="35"/>
</g>
<g>
	<rect x="2" y="19" style="fill:#B6DCFE;" width="35" height="1"/>
</g>
<path style="fill:#4788C7;" d="M37,15.201C35.128,9.131,32.823,4,28.621,4c-5.375,0-7.029,6.013-9.122,13.625l-0.48,1.74  l-0.482,1.744C16.556,28.312,14.992,34,10.379,34C6.156,34,3.975,27.266,2,20.246v3.554C3.872,29.869,6.177,35,10.379,35  c5.375,0,7.029-6.013,9.122-13.625l0.48-1.74l0.482-1.744C22.444,10.688,24.008,5,28.621,5c4.223,0,6.404,6.734,8.379,13.754V15.201  z"/>
</svg>
